
<svg xmlns="http://www.w3.org/2000/svg" version="1.1" xmlns:xlink="http://www.w3.org/1999/xlink" preserveAspectRatio="none" x="0px" y="0px" width="616px" height="113px" viewBox="0 0 616 113">
<defs>
<filter id="Filter_1" x="-20%" y="-20%" width="140%" height="140%" color-interpolation-filters="sRGB">
<feColorMatrix in="SourceGraphic" type="matrix" values="0 0 0 0 1 0 0 0 0 1 0 0 0 0 1 0 0 0 1 0" result="result1"/>
</filter>

<g id="Symbol_17_0_Layer0_0_FILL">
<path fill="#CCCCCC" stroke="none" d="
M 57.5 12
Q 57.5 5.95 54.8 3 52 0 47.5 0 43.1 0 40.45 3 37.7 6 37.7 12
L 37.7 40.05 6.65 40.05 0 56.2 37.7 56.2 37.65 90.4
Q 37.65 96.4 40.35 99.45 42.65 102.05 46.4 102.4 46.9 102.45 47.5 102.45 47.75 102.45 48 102.45 52.05 102.3 54.7 99.45 57.5 96.45 57.5 90.4
L 57.5 12
M 151.45 23.75
Q 145.85 12.35 134.95 6.2 124 0 108.8 0 97.6 0 88.75 3.55 79.95 7 73.8 13.6 67.65 20.25 64.45 29.65 61.2 39.05 61.2 50.35 61.2 61.35 64.35 70.85 67.4 80.3 73.5 87.05 79.55 93.8 88.65 97.55 97.7 101.2 109.2 101.2 120.75 101.2 129.7 97.6 138.65 94 144.8 87.2 150.9 80.4 154 71.1 157.05 61.85 157.05 50.5 157.05 35.1 151.45 23.75
M 123.6 19.85
Q 130.05 23.85 133.5 31.7 136.95 39.6 136.95 50.35 136.95 61.95 133.25 69.9 129.45 77.85 123.1 81.65 116.65 85.45 109.05 85.45 103.1 85.45 98.2 83.25 93.15 81.05 89.35 76.65 85.5 72.2 83.4 65.45 81.3 58.7 81.3 50.35 81.3 42.05 83.4 35.45 85.5 28.8 89.15 24.5 92.75 20.25 97.85 18.05 102.85 15.75 108.8 15.75 117.15 15.75 123.6 19.85
M 246.45 87.2
Q 252.55 80.4 255.65 71.1 258.7 61.85 258.7 50.5 258.7 35.1 253.1 23.75 247.5 12.35 236.6 6.2 225.65 0 210.45 0 199.25 0 190.4 3.55 181.6 7 175.45 13.6 169.3 20.25 166.1 29.65 162.85 39.05 162.85 50.35 162.85 61.35 166 70.85 169.05 80.3 175.15 87.05 181.2 93.8 190.3 97.55 199.35 101.2 210.85 101.2 222.4 101.2 231.35 97.6 240.3 94 246.45 87.2
M 210.45 15.75
Q 218.8 15.75 225.25 19.85 231.7 23.85 235.15 31.7 238.6 39.6 238.6 50.35 238.6 61.95 234.9 69.9 231.1 77.85 224.75 81.65 218.3 85.45 210.7 85.45 204.75 85.45 199.85 83.25 194.8 81.05 191 76.65 187.15 72.2 185.05 65.45 182.95 58.7 182.95 50.35 182.95 42.05 185.05 35.45 187.15 28.8 190.8 24.5 194.4 20.25 199.5 18.05 204.5 15.75 210.45 15.75
M 336.45 17.25
Q 340.95 12.95 340.95 8.6 340.95 5 338.35 2.55 335.65 0 331.4 0 328.1 0 326.2 1.4 324.15 2.8 321.35 5.75
L 282.45 46.35 282.45 12
Q 282.45 5.95 279.7 3 276.9 0 272.45 0 267.9 0 265.3 3 262.6 6 262.6 12
L 262.6 84.8
Q 262.6 89.45 262.8 91.95 263 94.4 263.95 96.3 265.2 98.55 267.55 99.9 269.9 101.2 272.45 101.2 276.85 101.2 279.65 98.3 282.45 95.3 282.45 89.15
L 282.45 68.9 298.65 53.35 322.1 89.4
Q 323.5 91.8 325.3 94.75 327.1 97.7 329.7 99.5 332.3 101.2 336.45 101.2 340.85 101.2 343.45 98.8 346 96.4 346 93.15 346 90.2 344.55 87.15 343.05 84 340.15 79.85
L 312.35 40.05 336.45 17.25 Z"/>
</g>

<g id="Symbol_8_copy_2_0_Layer0_0_FILL">
<path fill="#009289" stroke="none" d="
M 320.1 132.2
L 311.45 133.95
Q 288.35 138 282.7 122.7 274.75 121.25 275 118.55 275.45 115.5 275.75 113.1 269.4 109.8 267.8 104.5 268.25 110.3 270 115.3 270.85 117.7 272 119.9 276.15 127.85 284.15 133.5 289 136.6 294.05 137.45 308 139.45 320.1 132.2 Z"/>
</g>

<g id="Symbol_16_0_Layer0_0_FILL">
<path fill="#009289" stroke="none" d="
M 58.85 26.3
Q 63.6 26.3 65.95 24.25 68.2 22.1 68.2 18.65 68.2 15.25 65.95 13.15 63.6 11 58.85 11
L 12.15 11
Q 7.95 11 5.25 12.3 2.5 13.5 1.25 16.25 0 18.9 0 23.15
L 0 98.5
Q 0 104.55 2.8 107.55 5.5 110.55 9.95 110.55 14.25 110.55 17.05 107.65 19.8 104.65 19.8 98.5
L 19.8 66.25 52.45 66.25
Q 56.95 66.25 59.2 64.25 61.45 62.25 61.45 58.85 61.45 55.4 59.25 53.4 57 51.35 52.45 51.35
L 19.8 51.35 19.8 26.3 58.85 26.3
M 92.6 21.35
Q 92.6 15.3 89.9 12.35 87.05 9.35 82.6 9.35 78.25 9.35 75.5 12.35 72.8 15.35 72.8 21.35
L 72.8 98.5
Q 72.8 104.5 75.6 107.55 78.3 110.55 82.6 110.55 87.05 110.55 89.9 107.55 92.6 104.55 92.6 98.5
L 92.6 21.35
M 172 33.25
Q 172 29.4 170 25.3 168 21.25 163.65 17.55 159.3 13.85 152.75 11.6 146.15 9.35 137.15 9.35 125.85 9.35 117.5 12.75 109.15 16.1 104.75 22.35 100.35 28.65 100.35 36.75 100.35 45.2 104.55 50.95 108.7 56.6 115.85 59.95 122.9 63.25 133.45 65.7 141.35 67.5 146.1 69.1 150.75 70.7 153.75 73.8 156.7 76.8 156.7 81.65 156.7 87.8 151.2 91.95 145.7 96 136.85 96 130.45 96 126.5 94 122.6 91.95 120.45 88.8 118.25 85.65 116.35 81 114.85 77.05 112.7 75.05 110.5 73.05 107.35 73.05 103.5 73.05 101 75.65 98.5 78.2 98.5 81.8 98.5 88 102.7 94.6 106.8 101.15 113.5 105.1 122.9 110.55 137.4 110.55 149.5 110.55 158.3 106.55 167.1 102.55 171.7 95.5 176.25 88.4 176.25 79.5 176.25 72.1 173.65 67.05 171 61.9 166.3 58.55 161.55 55.2 154.9 52.9 148.15 50.55 139.85 48.6 133.25 46.95 130.4 46.1 127.5 45.2 124.7 43.65 121.9 42.15 120.3 40 118.7 37.85 118.7 34.95 118.7 30.2 123.45 26.85 128.1 23.45 135.8 23.45 144.1 23.45 147.8 26.6 151.55 29.65 154.25 35.2 156.3 39.05 158.1 40.8 159.85 42.45 163.25 42.45 167 42.45 169.5 39.65 172 36.8 172 33.25
M 288.2 4.9
Q 287.9 4.8 287.65 4.75 286.95 4.65 286.3 5.05 285.1 6.1 284 6.4 282.5 6.75 281.6 6.4 281.15 3.2 279.3 2.25
L 274.5 0.05
Q 272.3 -0.15 270.05 0.35 269.55 0.45 269.1 0.6 268.65 0.75 268.3 0.8 266.4 1.1 265.05 0.3 264.15 0.5 264.05 1.75 262.45 2.5 262.05 3.3
L 256.2 5.8
Q 256.15 5.55 256.05 5.35 255.35 3.05 253.5 2.35 252.4 2 250.95 2.15 252 2.5 252.8 3.1 254.4 4.35 254.85 6.65 253.35 4.55 251.7 4.35 250.9 4.25 250.05 4.55 248 5.6 246.15 4.5 247 5.85 248.1 6.3 248.95 6.7 249.85 6.6 250.25 6.5 250.7 6.35 252.25 6.1 252.65 8 246.25 10.85 243.35 16.8 242.65 17.25 242.05 17.65 235.05 22.45 234.7 27 233.4 29 232.7 31.25 231.75 33 230.9 34.75 218.85 25.4 207.1 26.3 212.95 31.9 215.4 39.2 216.25 42.9 219.7 44.2 222.85 48.6 225.3 49.15 225.25 49.25 225.25 49.4
L 200.2 49.4 200.2 21.35
Q 200.2 15.3 197.45 12.35 194.65 9.35 190.2 9.35 185.65 9.35 183.05 12.35 180.35 15.35 180.35 21.35
L 180.35 98.5
Q 180.35 104.5 183.05 107.55 185.7 110.55 190.2 110.55 194.6 110.55 197.4 107.55 200.2 104.55 200.2 98.5
L 200.2 65.55 221.6 65.55
Q 223.6 69.1 221.25 75.8 220.6 79.15 223.9 80.7 227.45 82.1 227 85.85 226.35 89.35 230.3 90.9 241.1 106.3 253.4 112.3 232.25 94.95 234.3 69.15 234.4 68.05 234.55 67 235.95 56.85 239.65 54.45 236.25 48.8 225.35 49.15 235.3 39.9 237.7 34.4 237.85 34.35 238 34.35 244.45 33.6 251.75 36.85 254.25 37.95 256.8 39.55 256.95 34.6 253.5 31.75 251.05 29.65 246.8 28.65 248.3 28.65 249.7 28.8 252.1 29.1 254.15 29.95 259.7 32.2 262.5 38.55 264.15 39.9 265.65 40.65 266.5 41.05 267.3 41.3 267.95 41.45 268.6 41.45 268.3 41.2 268 40.8 269.25 39.85 270.5 38.7 268.95 39.45 267.45 40 266.6 38.65 265.85 36.55 267.15 35.1 266.45 32.95 266.45 31 264.95 31.7 266.65 30.05 268.5 31.75 270.55 35.8 273.95 35.65 274.1 35.6 274.25 35.6 274.1 36.45 273.9 37.35 273.9 37.4 273.9 37.5 273.4 40.05 272.7 42.75 271.6 46.95 270.05 51.45 268.5 55.8 267.3 59.85
L 267.25 59.85 267.25 59.9
Q 265.45 65.55 264.35 70.55 260.4 88.1 264.8 97.85 270.1 109.35 283.45 108.55 291.05 106.9 296.65 103.2 297.1 102.85 297.5 102.45 308.8 92.25 313 77.95 313.4 76.55 313.75 75.1 314.1 74.1 314.4 73.05 315.6 68.95 316.25 64.55 315.3 66.25 314.4 67.85 310.95 73.75 307.45 77.7 303.25 82.35 298.25 85.9 293.25 89.45 289.65 89 286.05 88.5 282.55 88.15 287.75 93.2 291.35 94.45 294.95 95.65 296.3 95.25 297.6 94.8 297.7 94.75 286.95 102.65 276.9 97.45 266.85 92.25 271.9 69.5 273.9 63.35 275.45 57.65 276.35 55.45 277.1 53.35 285.15 53.35 293.3 49.1 297.45 45.1 301.65 39.45 303.4 36.15 304 31.75 294.45 29.6 282.35 36.2
L 282.7 30.95
Q 282.7 30.85 282.7 30.8
L 282.75 30.75
Q 282.75 30.7 282.75 30.65 282.75 30.45 282.75 30.3
L 282.75 30.25
Q 282.6 28.15 282.35 26 282.25 20.3 280.75 15.5 280.55 14.45 280.35 13.35 281.85 13.55 282.6 11.9 284.2 12.3 285.45 12.2 287.95 11.75 288 7.85 287.05 10.35 284.4 10
L 282.4 9.25 282 7.9
Q 282.4 7.9 282.75 8 284.8 8.5 286.25 7 287.7 5.5 289.05 6.1
L 288.2 4.9 Z"/>
</g>
</defs>

<g transform="matrix( 1, 0, 0, 1, -29,-24) ">
<g transform="matrix( 1, 0, 0, 1, 299.4,32.1) ">
<g transform="matrix( 1, 0, 0, 1, 0,0) ">
<use filter="url(#Filter_1)" xlink:href="#Symbol_17_0_Layer0_0_FILL"/>
</g>
</g>

<g transform="matrix( 1, 0, 0, 1, 0,0) ">
<use filter="url(#Filter_1)" xlink:href="#Symbol_8_copy_2_0_Layer0_0_FILL"/>
</g>

<g transform="matrix( 1, 0, 0, 1, 29,24) ">
<g transform="matrix( 1, 0, 0, 1, 0,0) ">
<use filter="url(#Filter_1)" xlink:href="#Symbol_16_0_Layer0_0_FILL"/>
</g>
</g>
</g>
</svg>
